<?xml version="1.0" encoding="utf-8"?>
<svg xmlns="http://www.w3.org/2000/svg" xmlns:xlink="http://www.w3.org/1999/xlink">
    <symbol id="passworld" viewBox="0 0 16.897 15.984">
        <g>
            <path fill="#C4CBCD" d="M15.743,12.078c-0.261,0-1.074-0.943-1.285-1.154l-0.964,0.964l2.209,2.209
                c0.181,0.181,0.281,0.432,0.281,0.683c0,0.563-0.643,1.205-1.205,1.205c-0.251,0-0.502-0.101-0.683-0.281L7.359,8.966
                c-1.054,0.783-2.339,1.315-3.664,1.315C1.506,10.281,0,8.765,0,6.586C0,3.293,3.293,0,6.586,0c2.18,0,3.695,1.506,3.695,3.695
                c0,1.325-0.532,2.61-1.315,3.665l3.564,3.564l0.964-0.964c-0.211-0.211-1.154-1.024-1.154-1.285c0-0.231,0.924-1.155,1.154-1.155
                c0.08,0,0.171,0.041,0.23,0.101c0.372,0.372,3.173,3.012,3.173,3.303C16.897,11.154,15.974,12.078,15.743,12.078z M6.426,1.928
                c-1.064,0-1.928,0.863-1.928,1.928c0,0.291,0.07,0.572,0.19,0.833C4.428,4.568,4.146,4.498,3.855,4.498
                c-1.064,0-1.928,0.863-1.928,1.928s0.863,1.928,1.928,1.928S5.783,7.49,5.783,6.426c0-0.291-0.07-0.572-0.19-0.833
                c0.261,0.121,0.542,0.191,0.833,0.191c1.064,0,1.928-0.863,1.928-1.928S7.49,1.928,6.426,1.928z"/>
        </g>
    </symbol>
    <symbol id="login" viewBox="0 0 14.137 15.422">
        <g>
            <path fill="#C4CBCD" d="M11.456,15.422H2.681C1.084,15.422,0,14.448,0,12.821c0-2.269,0.532-5.753,3.474-5.753
                c0.312,0,1.627,1.396,3.595,1.396s3.283-1.396,3.595-1.396c2.941,0,3.474,3.484,3.474,5.753
                C14.137,14.448,13.053,15.422,11.456,15.422z M7.068,7.711c-2.129,0-3.855-1.727-3.855-3.855S4.939,0,7.068,0
                s3.855,1.727,3.855,3.855S9.197,7.711,7.068,7.711z"/>
        </g>
    </symbol>
    <symbol id="vk" viewBox="0 0 30.011 17.123">
        <g>
            <path d="M27.625,5.832c-3.031,4.031-3.359,3.656-0.859,5.984c2.406,2.234,2.906,3.313,2.984,3.453
                c0,0,1,1.75-1.109,1.766l-4,0.063c-0.859,0.172-2-0.609-2-0.609c-1.5-1.031-2.906-3.703-4-3.359c0,0-1.125,0.359-1.094,2.766
                c0.016,0.516-0.234,0.797-0.234,0.797s-0.281,0.297-0.828,0.344h-1.797c-3.953,0.25-7.438-3.391-7.438-3.391
                S3.437,9.707,0.093,1.848c-0.219-0.516,0.016-0.766,0.016-0.766S0.343,0.785,1,0.785l4.281-0.031
                c0.406,0.063,0.688,0.281,0.688,0.281s0.25,0.172,0.375,0.5c0.703,1.75,1.609,3.344,1.609,3.344
                c1.563,3.219,2.625,3.766,3.234,3.438c0,0,0.797-0.484,0.625-4.375c-0.063-1.406-0.453-2.047-0.453-2.047
                C11,1.41,10.328,1.27,10.031,1.223c-0.234-0.031,0.156-0.594,0.672-0.844c0.766-0.375,2.125-0.391,3.734-0.375
                c1.266,0.016,1.625,0.094,2.109,0.203c1.484,0.359,0.984,1.734,0.984,5.047c0,1.063-0.203,2.547,0.563,3.031
                c0.328,0.219,1.141,0.031,3.141-3.375c0,0,0.938-1.625,1.672-3.516c0.125-0.344,0.391-0.484,0.391-0.484s0.25-0.141,0.594-0.094
                l4.5-0.031c1.359-0.172,1.578,0.453,1.578,0.453C30.203,1.879,29.468,3.379,27.625,5.832z"/>
        </g>
    </symbol>
    <symbol id="github" viewBox="0 0 26 22">
        <g>
            <path d="M25.047,17.422C22.984,21.594,17.313,22,13.25,22c-4.125,0-10.141-0.359-12.281-4.578
                C0.172,15.844,0,13.984,0,12.25c0-2.281,0.625-4.438,2.125-6.188C1.844,5.203,1.703,4.297,1.703,3.406
                C1.703,2.234,1.969,1.063,2.5,0c2.469,0,4.047,1.078,5.922,2.547C10,2.172,11.625,2,13.25,2c1.469,0,2.953,0.156,4.375,0.5
                C19.484,1.047,21.063,0,23.5,0c0.531,1.063,0.797,2.234,0.797,3.406c0,0.891-0.141,1.781-0.422,2.625
                C25.375,7.797,26,9.969,26,12.25C26,13.984,25.828,15.828,25.047,17.422z M18.5,10.5c-1.031,0-2.016,0.188-3.047,0.328
                C14.641,10.953,13.828,11,13,11s-1.641-0.047-2.453-0.172C9.531,10.688,8.531,10.5,7.5,10.5c-2.547,0-4,2.109-4,4.5
                c0,4.781,4.375,5.516,8.188,5.516h2.625c3.813,0,8.188-0.734,8.188-5.516C22.5,12.609,21.047,10.5,18.5,10.5z M8,18
                c-1.406,0-2-1.859-2-3s0.594-3,2-3s2,1.859,2,3S9.406,18,8,18z M18,18c-1.406,0-2-1.859-2-3s0.594-3,2-3s2,1.859,2,3
                S19.406,18,18,18z"/>
        </g>
    </symbol>
    <symbol id="inst" viewBox="0 0 24 22.938">
        <g>
            <path d="M2.875,5.344H2.844C1.109,5.344,0,4.156,0,2.672C0,1.156,1.156,0,2.906,0c1.766,0,2.859,1.156,2.875,2.672
                C5.797,4.156,4.672,5.344,2.875,5.344z M5.453,22.938H0.297V7.453h5.156V22.938z M24,22.938h-5.141v-8.281
                c0-2.078-0.75-3.5-2.609-3.5c-1.422,0-2.266,0.953-2.641,1.875c-0.125,0.344-0.172,0.797-0.172,1.266v8.641H8.297
                c0.063-14.031,0-15.484,0-15.484h5.141v2.25h-0.031c0.672-1.063,1.891-2.609,4.672-2.609c3.391,0,5.922,2.219,5.922,6.969V22.938z"
                />
        </g>
    </symbol>
    <symbol id="arrow" viewBox="0 0 25.18 16.164">
        <g>
            <path d="M13.293,15.871c-0.391,0.391-1.016,0.391-1.406,0L0.293,4.293c-0.391-0.391-0.391-1.031,0-1.422
                l2.594-2.578c0.391-0.391,1.016-0.391,1.406,0L12.59,8.59l8.297-8.297c0.391-0.391,1.016-0.391,1.406,0l2.594,2.578
                c0.391,0.391,0.391,1.031,0,1.422L13.293,15.871z"/>
        </g>
    </symbol>
    <symbol id="map_marker" viewBox="333.75 72.532 45 45">
      <g>
            <circle fill="#FFFFFF" cx="356.342" cy="92.018" r="5.854"/>
            <path d="M356.25,72.532c-12.427,0-22.5,10.073-22.5,22.5s10.073,22.5,22.5,22.5s22.5-10.073,22.5-22.5
                S368.677,72.532,356.25,72.532z M356.25,110.414c-1.438-1.127-11.252-9.062-11.252-17.422c0-6.203,4.98-11.24,11.16-11.339v-0.004
                c0.031,0,0.062,0.001,0.092,0.001s0.061-0.001,0.092-0.001v0.004c6.18,0.099,11.16,5.136,11.16,11.339
                C367.502,101.352,357.688,109.287,356.25,110.414z"/>
        </g>
    </symbol>
    <symbol id="skype" viewBox="0 0 508.52 508.52">
       <g>
            <path d="M254.26,0C113.845,0,0,113.845,0,254.26s113.845,254.26,254.26,254.26
                s254.26-113.845,254.26-254.26C508.52,113.813,394.675,0,254.26,0z M323.196,404.591c-16.209,0-31.306-4.64-44.178-12.586
                c-8.263,1.494-16.749,2.352-25.49,2.352c-77.39,0-140.097-62.389-140.097-139.366c0-7.469,0.604-14.811,1.748-21.962
                c-8.549-13.094-13.476-28.731-13.476-45.513c0-46.18,37.408-83.588,83.588-83.62c16.845,0,32.482,4.99,45.64,13.571
                c7.31-1.208,14.874-1.843,22.566-1.843c77.359,0,140.097,62.421,140.097,139.366c0,6.42-0.477,12.713-1.303,18.911
                c9.185,13.444,14.525,29.653,14.525,47.07C406.816,367.183,369.408,404.591,323.196,404.591z"/>
            <path d="M235.953,228.166c-40.491-9.853-18.338-44.495,14.461-43.987
                c31.846,0.509,48.055,34.134,62.453,32.386c14.461-1.748,26.761-23.392,4.036-42.779c-19.61-16.781-44.495-26.03-82.698-22.566
                c-29.939,2.701-58.384,21.993-61.88,59.56c-3.464,37.599,41.095,56.7,76.373,61.944c24.727,3.623,58.416,15.605,38.139,38.743
                c-18.561,21.262-53.776,8.105-63.025,2.32c-9.249-5.848-19.673-26.634-37.027-25.521c-17.385,1.176-25.934,23.996-4.608,44.019
                c19.101,17.894,39.919,27.778,84.446,25.426c44.559-2.32,84.478-41.635,68.841-78.693
                C319.827,242.024,276.444,237.987,235.953,228.166z"/>
        </g>
    </symbol>
    <symbol id="phone" viewBox="338.678 110.5 45 45">
        <path d="M361.178,110.5c-12.427,0-22.5,10.073-22.5,22.5s10.073,22.5,22.5,22.5s22.5-10.073,22.5-22.5
        S373.604,110.5,361.178,110.5z M374.611,142.203c-1.034,1.601-1.934,3.261-6.258,3.358c-4.418,0.004-8.989-3.655-12.318-7.307
        c-3.323-3.232-6.396-7.408-6.394-11.457c0.1-4.324,1.76-5.224,3.36-6.258c0,0,0.876-0.368,1.639,0.295
        c0.762,0.663,4.103,4.005,4.103,4.005s1.188,0.991,0.369,2.089c-0.652,0.874-2.157,2.484-2.354,2.696l0.564,1.063
        c0.755,1.244,2.194,3.43,4.349,5.201c1.453,1.195,3.911,2.506,3.91,2.504c0.354-0.329,1.823-1.689,2.641-2.301
        c1.098-0.82,2.088,0.367,2.088,0.367s3.342,3.343,4.006,4.105C374.979,141.327,374.611,142.203,374.611,142.203z"/>
    </symbol>
    <symbol id="mail" viewBox="1138.75 328.75 45 45">
        <path d="M1161.25,328.75c-12.427,0-22.5,10.073-22.5,22.5s10.073,22.5,22.5,22.5s22.5-10.073,22.5-22.5
        S1173.677,328.75,1161.25,328.75z M1147.969,346.354l7.269,4.442l-7.269,9.138V346.354z M1148.799,360.895l7.51-9.443l4.926,3.012
        l4.918-3.028l7.518,9.46H1148.799z M1174.531,359.974l-7.311-9.197l7.311-4.502V359.974z M1174.531,344.811L1161.234,353
        l-13.265-8.106v-2.208h26.563V344.811z"/>
    </symbol>
</svg>
